<svg xmlns="http://www.w3.org/2000/svg" xmlns:xlink="http://www.w3.org/1999/xlink" width="107.221" height="106" viewBox="0 0 107.221 106">
  <defs>
    <clipPath id="clip">
      <use xlink:href="#fill"/>
    </clipPath>
  </defs>
  <g id="minting" transform="translate(20539.221 7248)">
    <rect id="Rectangle_27" data-name="Rectangle 27" width="106" height="106" transform="translate(-20538 -7248)" fill="none"/>
    <g id="minting-2" data-name="minting" transform="translate(-176.271 595.342)">
      <path id="Path_153" data-name="Path 153" d="M-20358.352-7790.363l16.012,15.127h33.74l13.57-10.228a7.7,7.7,0,0,1-1.746-2.247,6.464,6.464,0,0,1-.48-2.652Z" transform="translate(0.163 1.714)" fill="none" stroke="#1f3cf0" stroke-width="3"/>
      <path id="Path_154" data-name="Path 154" d="M-20341.957-7774.574v7.476l-1,1.461h-4.387v5.41h8.135v-2.5l1.734-1.424h22.895l1.848,1.806v2.119h8.414v-5.41h-4.129l-1.795-1.461v-7.476Z" transform="translate(0.74 2.542)" fill="none" stroke="#1f3cf0" stroke-width="3"/>
      <path id="Path_155" data-name="Path 155" d="M-20361.449-7795.12v3.645h40.93v-3.645Z" transform="translate(0 1.463)" fill="none" stroke="#742fd7" stroke-width="3"/>
      <path id="Path_156" data-name="Path 156" d="M-20359.107-7801.544l7.246,2.744" transform="translate(0.123 1.126)" fill="none" stroke="#fff" stroke-width="3"/>
      <path id="Path_157" data-name="Path 157" d="M-20358.352-7807.906l12.037,6.584-7.33-11.631Z" transform="translate(0.163 0.528)" fill="none" stroke="#87e1f7" stroke-width="3"/>
      <path id="Path_158" data-name="Path 158" d="M-20346.916-7813.25l1.434,4.507" transform="translate(0.765 0.512)" fill="none" stroke="#1f3cf0" stroke-width="3"/>
      <rect id="Rectangle_24" data-name="Rectangle 24" width="9.472" height="16.84" rx="4" transform="translate(-20339.928 -7816.685)" fill="#82d9ef"/>
      <g id="Rectangle_25" data-name="Rectangle 25" transform="translate(-20329.402 -7809.318)" fill="#fff" stroke="#87e1f7" stroke-width="3">
        <rect id="fill" width="25.259" height="2.105" stroke="none"/>
        <path d="M0,0.6049582958221436h25.259498596191406M23.759498596191406,0v2.1049582958221436M25.259498596191406,1.5h-25.259498596191406M1.5,2.1049582958221436v-2.1049582958221436" fill="none" clip-path="url(#clip)"/>
      </g>
      <g id="Ellipse_18" data-name="Ellipse 18" transform="translate(-20279.936 -7823)" fill="#fff" stroke="#fff" stroke-width="3">
        <circle cx="3.684" cy="3.684" r="3.684" stroke="none"/>
        <circle cx="3.684" cy="3.684" r="2.184" fill="none"/>
      </g>
      <g id="Ellipse_19" data-name="Ellipse 19" transform="translate(-20295.723 -7792.478)" fill="#fff" stroke="#fff" stroke-width="3">
        <circle cx="3.684" cy="3.684" r="3.684" stroke="none"/>
        <circle cx="3.684" cy="3.684" r="2.184" fill="none"/>
      </g>
      <g id="Ellipse_20" data-name="Ellipse 20" transform="translate(-20263.096 -7791.426)" fill="#fff" stroke="#fff" stroke-width="3">
        <circle cx="3.684" cy="3.684" r="3.684" stroke="none"/>
        <circle cx="3.684" cy="3.684" r="2.184" fill="none"/>
      </g>
      <g id="Path_159" data-name="Path 159" transform="translate(-20294.67 -7818.757)" fill="none">
        <path d="M18.494,3.812C21.469,3.806,23.9.621,23.9.621A18.86,18.86,0,0,1,37.889,18.912a19.357,19.357,0,0,1-1.137,6.48s-4.127-.451-5.868,2.263.15,5.88.15,5.88a18.81,18.81,0,0,1-12.089,4.322A19.081,19.081,0,0,1,6.41,33.118S8.3,29.91,6.718,27.47s-5.667-2.293-5.667-2.293A18.672,18.672,0,0,1,0,18.912,19.045,19.045,0,0,1,13.651.717S15.388,3.857,18.494,3.812Z" stroke="none"/>
        <path d="M 24.784912109375 4.041156768798828 C 24.60526466369629 4.205078125 24.4117259979248 4.373138427734375 24.20537376403809 4.541118621826172 C 22.39114761352539 6.017982482910156 20.4256420135498 6.802900314331055 18.51982498168945 6.81184196472168 C 18.48908615112305 6.812217712402344 18.45878982543945 6.812397003173828 18.42802429199219 6.812397003173828 C 16.38926315307617 6.812397003173828 14.44994354248047 5.990478515625 12.81972312927246 4.435508728027344 C 12.76579284667969 4.384063720703125 12.71300888061523 4.33258056640625 12.66148948669434 4.281269073486328 C 10.09482383728027 5.411319732666016 7.887296676635742 7.142978668212891 6.203813552856445 9.361837387084961 C 4.107864379882812 12.12433815002441 3.000003814697266 15.42673683166504 3.000003814697266 18.91201782226562 C 3.000003814697266 20.06565093994141 3.126426696777344 21.25241279602051 3.358726501464844 22.34839630126953 C 7.087265014648438 22.97382164001465 8.76439094543457 25.10976028442383 9.236944198608398 25.84053802490234 C 10.34323310852051 27.55131721496582 10.63053321838379 29.65689849853516 10.06779479980469 31.92962646484375 C 10.05342102050781 31.98767280578613 10.03869247436523 32.04502487182617 10.02362060546875 32.10176467895508 C 11.07642555236816 32.80921173095703 12.18158149719238 33.38591766357422 13.32633399963379 33.8242073059082 C 15.11565399169922 34.50927734375 17.00591468811035 34.85663604736328 18.94462394714355 34.85663604736328 C 21.97359848022461 34.85663604736328 24.96624374389648 34.00044250488281 27.42448806762695 32.46505737304688 C 27.40889930725098 32.4017333984375 27.39371871948242 32.33744812011719 27.37906265258789 32.27247619628906 C 26.86476516723633 29.99222755432129 27.20354461669922 27.8353271484375 28.35878372192383 26.03495788574219 C 29.29885482788086 24.56989669799805 30.75959396362305 23.48310852050781 32.58307266235352 22.89206695556641 C 33.24232864379883 22.67838478088379 33.89065933227539 22.54742431640625 34.48100280761719 22.46941184997559 C 34.75738906860352 21.2742748260498 34.88924407958984 20.11237716674805 34.88924407958984 18.91201782226562 C 34.88924407958984 17.08844757080078 34.58488464355469 15.29772758483887 33.98461532592773 13.58960723876953 C 33.40667343139648 11.94503784179688 32.56844329833984 10.41240692138672 31.49320411682129 9.034317016601562 C 29.7205810546875 6.762420654296875 27.38065338134766 5.02935791015625 24.784912109375 4.041156768798828 M 23.89754486083984 0.62139892578125 C 31.80432510375977 2.609188079833984 37.88924407958984 10.04999732971191 37.88924407958984 18.91201782226562 C 37.88924407958984 21.07781791687012 37.52581405639648 23.15873718261719 36.75189208984375 25.39239883422852 C 36.75189208984375 25.39239692687988 32.62479400634766 24.9416675567627 30.8836841583252 27.65509796142578 C 29.14257431030273 30.3685188293457 31.03324508666992 33.53467559814453 31.03324508666992 33.53467559814453 C 27.98330307006836 36.12976837158203 23.66563415527344 37.85663604736328 18.94462394714355 37.85663604736328 C 14.25727462768555 37.85663604736328 9.967533111572266 36.1543083190918 6.410303115844727 33.11758804321289 C 6.410303115844727 33.11758804321289 8.295623779296875 29.90959739685059 6.7177734375 27.46957778930664 C 5.139934539794922 25.02954864501953 1.050518035888672 25.17612648010254 1.050525665283203 25.17612838745117 C 0.4155845642089844 23.4468879699707 3.814697265625e-06 21.22797775268555 3.814697265625e-06 18.91201782226562 C 3.814697265625e-06 10.39527702331543 5.620002746582031 3.191158294677734 13.65074348449707 0.7169570922851562 C 13.65074348449707 0.7169532775878906 15.38857078552246 3.857452392578125 18.49444389343262 3.811916351318359 C 21.46893310546875 3.806266784667969 23.89754486083984 0.62139892578125 23.89754486083984 0.62139892578125 Z" stroke="none" fill="#fff"/>
      </g>
      <path id="Path_160" data-name="Path 160" d="M-20290.9-7795.681v-10.773l6.744,10.773v-10.773" transform="translate(3.705 0.869)" fill="none" stroke="#87e1f7" stroke-linejoin="round" stroke-width="3"/>
      <path id="Path_161" data-name="Path 161" d="M-20280.5-7795.7v-10.482h4.945" transform="translate(4.248 0.883)" fill="none" stroke="#8134f0" stroke-linecap="round" stroke-linejoin="round" stroke-width="3"/>
      <path id="Path_162" data-name="Path 162" d="M-20280.5-7801.2h4.623" transform="translate(4.248 1.144)" fill="none" stroke="#8134f0" stroke-linecap="round" stroke-width="3"/>
      <path id="Path_163" data-name="Path 163" d="M-20270.811-7795.713v-10.133h3.932" transform="translate(4.557 0.901)" fill="none" stroke="#1f3cf0" stroke-linecap="round" stroke-width="3"/>
    </g>
  </g>
</svg>
