<svg xmlns="http://www.w3.org/2000/svg" width="106" height="106" viewBox="0 0 106 106">
  <g id="nftgame" transform="translate(20260 7248)">
    <rect id="Rectangle_29" data-name="Rectangle 29" width="106" height="106" transform="translate(-20260 -7248)" fill="none"/>
    <g id="NFTMarketplace" transform="translate(-87 413)">
      <g id="Rectangle_16" data-name="Rectangle 16" transform="translate(-20173 -7661)" fill="none" stroke="#1f3cf0" stroke-linejoin="round" stroke-width="4">
        <rect width="23" height="23" stroke="none"/>
        <rect x="2" y="2" width="19" height="19" fill="none"/>
      </g>
      <g id="Rectangle_17" data-name="Rectangle 17" transform="translate(-20089 -7661)" fill="none" stroke="#87e1f7" stroke-linejoin="round" stroke-width="4">
        <rect width="22" height="23" stroke="none"/>
        <rect x="2" y="2" width="18" height="19" fill="none"/>
      </g>
      <g id="Rectangle_18" data-name="Rectangle 18" transform="translate(-20089 -7578)" fill="none" stroke="#8134f0" stroke-linejoin="round" stroke-width="4">
        <rect width="22" height="23" stroke="none"/>
        <rect x="2" y="2" width="18" height="19" fill="none"/>
      </g>
      <g id="Rectangle_19" data-name="Rectangle 19" transform="translate(-20173 -7578)" fill="none" stroke="#fff" stroke-linejoin="round" stroke-width="4">
        <rect width="23" height="23" stroke="none"/>
        <rect x="2" y="2" width="19" height="19" fill="none"/>
      </g>
      <path id="Path_102" data-name="Path 102" d="M-18183.932-7468.073l-10.768-9.96a19.651,19.651,0,0,0-7.5-3.156c-3.828-.522-12.51,1.993-17.23,4.508a50.211,50.211,0,0,0-8.986,6.449,30.775,30.775,0,0,0-7.068,8.458c-1.867,3.62-1.848,8.173-1.02,10.037.887,2,2.563,5.114,6.061,4.348,3.9-.853,9.605-5.743,9.605-5.743s3.092-2.565,5.549-2.565,4.287,2.565,4.287,2.565l19.865,19.721s2.43,2.112,2.633,4.652-1.814,5.51-1.814,5.51-5.049,5.733-6,9.7c-.811,3.378,2.27,4.991,4.221,5.867,1.889.849,6.734.857,10.523-1.081a28.037,28.037,0,0,0,8.131-6.906,53.833,53.833,0,0,0,5.842-8.192c2.57-4.523,5.674-14.172,4.936-18.292s-4.021-7.877-4.021-7.877l-9.65-10.426" transform="translate(-1917.943 -166.53)" fill="none" stroke="#fff" stroke-linecap="round" stroke-width="4"/>
      <path id="Path_103" data-name="Path 103" d="M-17983.437-7236.674s4.25-4.362,8.518-3.214,7.729,6.287,9.643,8.154c3.971,3.875-2.279,10.56-2.279,10.56" transform="translate(-2142.805 -380.375)" fill="none" stroke="aqua" stroke-width="4"/>
      <g id="Group_20" data-name="Group 20" transform="translate(-20124.891 -7639.618)">
        <ellipse id="Ellipse_7" data-name="Ellipse 7" cx="2.5" cy="3" rx="2.5" ry="3" transform="translate(-0.109 -0.382)" fill="#87e1f7"/>
        <circle id="Ellipse_8" data-name="Ellipse 8" cx="2.5" cy="2.5" r="2.5" transform="translate(-0.109 7.618)" fill="#8134f0"/>
        <ellipse id="Ellipse_9" data-name="Ellipse 9" cx="3" cy="2.5" rx="3" ry="2.5" transform="translate(6.891 7.618)" fill="#fff"/>
        <circle id="Ellipse_10" data-name="Ellipse 10" cx="3" cy="3" r="3" transform="translate(6.891 -0.382)" fill="#1f3cf0"/>
      </g>
      <g id="Group_21" data-name="Group 21" transform="translate(-20101.729 -7616.455)">
        <ellipse id="Ellipse_7-2" data-name="Ellipse 7" cx="3" cy="2.5" rx="3" ry="2.5" transform="translate(-0.271 0.455)" fill="#fff"/>
        <circle id="Ellipse_8-2" data-name="Ellipse 8" cx="3" cy="3" r="3" transform="translate(-0.271 7.455)" fill="#8134f0"/>
        <ellipse id="Ellipse_9-2" data-name="Ellipse 9" cx="2.5" cy="3" rx="2.5" ry="3" transform="translate(7.729 7.455)" fill="#87e1f7"/>
        <circle id="Ellipse_10-2" data-name="Ellipse 10" cx="2.5" cy="2.5" r="2.5" transform="translate(7.729 0.455)" fill="#1f3cf0"/>
      </g>
      <path id="Path_104" data-name="Path 104" d="M-17515.965-7383.849v7.329" transform="translate(-2557.298 -251.428)" fill="none" stroke="#1f3cf0" stroke-linecap="round" stroke-width="4"/>
      <path id="Path_105" data-name="Path 105" d="M-17515.965-7383.849v7.329" transform="translate(-2557.298 -228.081)" fill="none" stroke="#5ffecd" stroke-linecap="round" stroke-width="4"/>
      <path id="Path_106" data-name="Path 106" d="M-17515.965-7383.849v7.329" transform="translate(-2557.298 -204.848)" fill="none" stroke="#fff" stroke-linecap="round" stroke-width="4"/>
      <path id="Path_107" data-name="Path 107" d="M0,0V7.329" transform="translate(-20092.945 -7561.572) rotate(90)" fill="none" stroke="#87e1f7" stroke-linecap="round" stroke-width="4"/>
      <path id="Path_108" data-name="Path 108" d="M0,0V7.329" transform="translate(-20116.502 -7561.572) rotate(90)" fill="none" stroke="#1f3cf0" stroke-linecap="round" stroke-width="4"/>
      <path id="Path_109" data-name="Path 109" d="M0,0V7.329" transform="translate(-20139.621 -7561.572) rotate(90)" fill="none" stroke="#8134f0" stroke-linecap="round" stroke-width="4"/>
      <path id="Path_110" data-name="Path 110" d="M0,0V7.329" transform="translate(-20139.621 -7654.959) rotate(90)" fill="none" stroke="#fff" stroke-linecap="round" stroke-width="4"/>
      <path id="Path_111" data-name="Path 111" d="M0,0V7.329" transform="translate(-20116.275 -7654.959) rotate(90)" fill="none" stroke="#fa0" stroke-linecap="round" stroke-width="4"/>
      <path id="Path_112" data-name="Path 112" d="M0,0V7.329" transform="translate(-20092.93 -7654.959) rotate(90)" fill="none" stroke="#8134f0" stroke-linecap="round" stroke-width="4"/>
      <path id="Path_113" data-name="Path 113" d="M-17515.965-7383.849v7.329" transform="translate(-2650.798 -251.428)" fill="none" stroke="#87e1f7" stroke-linecap="round" stroke-width="4"/>
      <path id="Path_114" data-name="Path 114" d="M-17515.965-7383.849v7.329" transform="translate(-2650.798 -228.081)" fill="none" stroke="#fdfe2d" stroke-linecap="round" stroke-width="4"/>
      <path id="Path_115" data-name="Path 115" d="M-17515.965-7383.849v7.329" transform="translate(-2650.798 -204.848)" fill="none" stroke="#8134f0" stroke-linecap="round" stroke-width="4"/>
      <path id="Path_116" data-name="Path 116" d="M-18301.834-7094.833l10.836-11.106-5.416,16.66,10.973-11.4" transform="translate(-1860.494 -499.314)" fill="none" stroke="#87e1f7" stroke-linecap="round" stroke-linejoin="round" stroke-width="4"/>
      <g id="Group_32" data-name="Group 32">
        <path id="Path_117" data-name="Path 117" d="M-18207.824-6999.339l10.977-11.145,5.48,5.705" transform="translate(-1943.849 -583.951)" fill="none" stroke="#fa0" stroke-linecap="round" stroke-linejoin="round" stroke-width="4"/>
        <path id="Path_118" data-name="Path 118" d="M-18147.9-6950.021l-2.408-2.35" transform="translate(-1994.843 -635.478)" fill="none" stroke="#fa0" stroke-linecap="round" stroke-linejoin="round" stroke-width="4"/>
      </g>
      <path id="Path_119" data-name="Path 119" d="M-18082.531-6901.062l10.867-10.832-3.572-3.563,7.014,7.011" transform="translate(-2054.942 -668.208)" fill="none" stroke="#1f3cf0" stroke-linecap="round" stroke-linejoin="round" stroke-width="4"/>
    </g>
  </g>
</svg>
