<svg xmlns="http://www.w3.org/2000/svg" width="106" height="106" viewBox="0 0 106 106">
  <g id="smartcontract" transform="translate(19982 7248)">
    <rect id="Rectangle_31" data-name="Rectangle 31" width="106" height="106" transform="translate(-19982 -7248)" fill="none"/>
    <g id="smartcontract-2" data-name="smartcontract" transform="translate(-237.449 1443.436)">
      <g id="Ellipse_11" data-name="Ellipse 11" transform="translate(-19737.551 -8685.695)" fill="none" stroke="#fff" stroke-width="4">
        <ellipse cx="5" cy="4.5" rx="5" ry="4.5" stroke="none"/>
        <ellipse cx="5" cy="4.5" rx="3" ry="2.5" fill="none"/>
      </g>
      <g id="Ellipse_12" data-name="Ellipse 12" transform="translate(-19743.551 -8646.695)" fill="none" stroke="#1f3cf0" stroke-width="4">
        <ellipse cx="4.5" cy="5.5" rx="4.5" ry="5.5" stroke="none"/>
        <ellipse cx="4.5" cy="5.5" rx="2.5" ry="3.5" fill="none"/>
      </g>
      <g id="Ellipse_13" data-name="Ellipse 13" transform="translate(-19744.551 -8613.695)" fill="none" stroke="#8134f0" stroke-width="4">
        <ellipse cx="4" cy="5" rx="4" ry="5" stroke="none"/>
        <ellipse cx="4" cy="5" rx="2" ry="3" fill="none"/>
      </g>
      <g id="Ellipse_14" data-name="Ellipse 14" transform="translate(-19655.551 -8605.695)" fill="none" stroke="#87e1f7" stroke-width="4">
        <ellipse cx="4.5" cy="5.5" rx="4.5" ry="5.5" stroke="none"/>
        <ellipse cx="4.5" cy="5.5" rx="2.5" ry="3.5" fill="none"/>
      </g>
      <g id="Ellipse_15" data-name="Ellipse 15" transform="translate(-19647.551 -8646.695)" fill="none" stroke="#fff" stroke-width="4">
        <ellipse cx="4.5" cy="5.5" rx="4.5" ry="5.5" stroke="none"/>
        <ellipse cx="4.5" cy="5.5" rx="2.5" ry="3.5" fill="none"/>
      </g>
      <g id="Ellipse_16" data-name="Ellipse 16" transform="translate(-19648.551 -8670.695)" fill="none" stroke="#1f3cf0" stroke-width="4">
        <ellipse cx="4.5" cy="5" rx="4.5" ry="5" stroke="none"/>
        <ellipse cx="4.5" cy="5" rx="2.5" ry="3" fill="none"/>
      </g>
      <g id="Ellipse_17" data-name="Ellipse 17" transform="translate(-19687.551 -8628.695)" fill="none" stroke="#1f3cf0" stroke-width="4">
        <circle cx="6.5" cy="6.5" r="6.5" stroke="none"/>
        <circle cx="6.5" cy="6.5" r="4.5" fill="none"/>
      </g>
      <path id="Path_133" data-name="Path 133" d="M-19693.475-8656.631h54.043" transform="translate(-26.009 -15.865)" fill="none" stroke="#8134f0" stroke-width="4"/>
      <path id="Path_134" data-name="Path 134" d="M-19673.809-8619.3h34.465" transform="translate(-35.929 -34.698)" fill="none" stroke="#87e1f7" stroke-width="4"/>
      <path id="Path_135" data-name="Path 135" d="M-19673.809-8619.3h34.465" transform="translate(-35.929 -25.284)" fill="none" stroke="#87e1f7" stroke-width="4"/>
      <path id="Path_136" data-name="Path 136" d="M-19673.809-8619.3h34.465" transform="translate(-35.882 -15.869)" fill="none" stroke="#87e1f7" stroke-width="4"/>
      <path id="Path_137" data-name="Path 137" d="M-19673.809-8619.3h17.23" transform="translate(-35.882 5.437)" fill="none" stroke="#87e1f7" stroke-width="4"/>
      <path id="Path_138" data-name="Path 138" d="M-19629.043-8541.674l-2.738,4.416h3.182l1.063,2.9,2.84-4.637Z" transform="translate(-57.133 -73.863)" fill="red"/>
      <path id="Path_139" data-name="Path 139" d="M-19627.439-8541.674l2.742,4.416h-3.186l-1.061,2.9-2.838-4.637Z" transform="translate(-48.89 -73.863)" fill="red"/>
      <path id="Path_140" data-name="Path 140" d="M-19608-8673.5h7.439" transform="translate(-69.134 -7.355)" fill="none" stroke="#87e1f7" stroke-width="4"/>
      <path id="Path_141" data-name="Path 141" d="M-19584.4-8642.5h16.576" transform="translate(-81.04 -22.994)" fill="none" stroke="#1f3cf0" stroke-width="4"/>
      <path id="Path_142" data-name="Path 142" d="M-19584.4-8642.5h16.576" transform="translate(-151.2 1.78)" fill="none" stroke="#1f3cf0" stroke-width="4"/>
      <path id="Path_143" data-name="Path 143" d="M-19718.5-8666.686v12.154h11.855" transform="translate(-13.386 -10.793)" fill="none" stroke="#fff" stroke-width="4"/>
      <path id="Path_144" data-name="Path 144" d="M-19728-8536.633h9.676v-8.972h7.119" transform="translate(-8.59 -71.88)" fill="none" stroke="#8134f0" stroke-width="4"/>
      <path id="Path_145" data-name="Path 145" d="M-19583.135-8541.674h13.738v11.75" transform="translate(-81.676 -73.863)" fill="none" stroke="#87e1f7" stroke-width="4"/>
      <path id="Path_146" data-name="Path 146" d="M-19583.135-8582.222h5.635v-9.2h12.145" transform="translate(-81.676 -48.764)" fill="none" stroke="#fff" stroke-width="4"/>
      <g id="Rectangle_23" data-name="Rectangle 23" transform="translate(-19721.551 -8687.695)" fill="none" stroke="#8134f0" stroke-width="4">
        <rect width="57" height="89" stroke="none"/>
        <rect x="2" y="2" width="53" height="85" fill="none"/>
      </g>
      <path id="Path_147" data-name="Path 147" d="M-19608-8673.5h11.117" transform="translate(-71.002 78.118)" fill="none" stroke="#fff" stroke-width="4"/>
      <path id="Path_148" data-name="Path 148" d="M-19608-8673.5h11.117" transform="translate(-71.153 84.064)" fill="none" stroke="#fff" stroke-width="4"/>
    </g>
  </g>
</svg>
