<svg xmlns="http://www.w3.org/2000/svg" width="106" height="109.099" viewBox="0 0 106 109.099">
  <g id="auditing" transform="translate(19843 7248.72)">
    <rect id="Rectangle_32" data-name="Rectangle 32" width="106" height="106" transform="translate(-19843 -7248)" fill="none"/>
    <g id="auditing-2" data-name="auditing" transform="translate(-826.564 1053.696)">
      <path id="Path_120" data-name="Path 120" d="M-18932.9-8300.412a7.521,7.521,0,0,0-1.26-.726,3.816,3.816,0,0,0-1.361-.267l-63.691-.012a4.519,4.519,0,0,0-2.338.742,3.473,3.473,0,0,0-1.3,2.169l.043,86.729a3.281,3.281,0,0,0,.412,1.993,3.019,3.019,0,0,0,1.936,1.35" transform="translate(0.002)" fill="none" stroke="#fff" stroke-width="2"/>
      <path id="Path_121" data-name="Path 121" d="M-18920.588-8202.84l.023-88.737a5.757,5.757,0,0,0-1.365-2.7,5.162,5.162,0,0,0-2.715-1.441l-64.506-.043a4.6,4.6,0,0,0-2.225.779,3.425,3.425,0,0,0-.977,1.91l-.145,86.841a4.588,4.588,0,0,0,.836,2.374,3.9,3.9,0,0,0,2.162,1.013h9.131" transform="translate(-7.241 -3.955)" fill="#fff" stroke="#82d9ee" stroke-width="2"/>
      <path id="Path_122" data-name="Path 122" d="M-18944.621-7981.329v-13.364l.416,1.166.34,1.3v.794l1.094.654,1.678.582.844-.821.918-.735,1.271-.255,1.525.544,1.035,1.268,2.186-.821v9.69l-5.674-5.515Z" transform="translate(-40.7 -214.367)" fill="#fcfe2d" stroke="#fdfe2d" stroke-width="2"/>
      <path id="Icon_ionic-ios-settings" data-name="Icon ionic-ios-settings" d="M24.762,15.543a2.842,2.842,0,0,1,1.823-2.651,11.265,11.265,0,0,0-1.363-3.284,2.88,2.88,0,0,1-1.156.247,2.836,2.836,0,0,1-2.594-3.991A11.231,11.231,0,0,0,18.194,4.5a2.839,2.839,0,0,1-5.3,0A11.265,11.265,0,0,0,9.607,5.863,2.836,2.836,0,0,1,7.013,9.855a2.786,2.786,0,0,1-1.156-.247A11.514,11.514,0,0,0,4.5,12.9a2.841,2.841,0,0,1,.006,5.3,11.265,11.265,0,0,0,1.363,3.284,2.837,2.837,0,0,1,3.744,3.744A11.331,11.331,0,0,0,12.9,26.591a2.834,2.834,0,0,1,5.291,0,11.265,11.265,0,0,0,3.284-1.363,2.84,2.84,0,0,1,3.744-3.744A11.331,11.331,0,0,0,26.58,18.2,2.855,2.855,0,0,1,24.762,15.543Zm-9.168,4.6a4.6,4.6,0,1,1,4.6-4.6A4.6,4.6,0,0,1,15.594,20.138Z" transform="translate(-18994.467 -8231.106)" fill="#ffaa01" stroke="#fa0" stroke-width="2"/>
      <path id="Path_123" data-name="Path 123" d="M-18972.16-8065.78h25.578" transform="translate(-21.454 -164.685)" fill="none" stroke="#8134f0" stroke-width="3"/>
      <path id="Path_124" data-name="Path 124" d="M-18972.16-8088.085h16.34" transform="translate(-21.454 -149.096)" fill="none" stroke="#1f3cf0" stroke-width="3"/>
      <path id="Path_125" data-name="Path 125" d="M-18972.16-8110.773h12.223" transform="translate(-21.454 -133.239)" fill="none" stroke="#82d9ee" stroke-width="3"/>
      <path id="Path_126" data-name="Path 126" d="M-18972.16-8132.947h10.672" transform="translate(-21.454 -117.742)" fill="none" stroke="#8134f0" stroke-width="3"/>
      <path id="Path_127" data-name="Path 127" d="M-18972.16-8155.287h11.225" transform="translate(-21.454 -102.129)" fill="none" stroke="#82d9ee" stroke-width="3"/>
      <path id="Path_128" data-name="Path 128" d="M-18972.16-8177.985h13.215" transform="translate(-21.454 -86.265)" fill="none" stroke="#1f3cf0" stroke-width="3"/>
      <path id="Path_129" data-name="Path 129" d="M-18972.16-8199.8h18.434" transform="translate(-21.454 -71.017)" fill="none" stroke="#8134f0" stroke-width="3"/>
      <path id="Path_130" data-name="Path 130" d="M-18947.566-8222.105h19.605" transform="translate(-38.642 -55.43)" fill="none" stroke="#82d9ee" stroke-width="3"/>
      <g id="Rectangle_21" data-name="Rectangle 21" transform="translate(-18980.92 -8289.547)" fill="#fff" stroke="#707070" stroke-width="3">
        <rect width="33.724" height="6.624" rx="3.312" stroke="none"/>
        <rect x="1.5" y="1.5" width="30.724" height="3.624" rx="1.812" fill="none"/>
      </g>
      <path id="Path_131" data-name="Path 131" d="M-18915.012-8251.894h24.748" transform="translate(-61.394 -34.611)" fill="none" stroke="#1f3cf0" stroke-width="3"/>
      <path id="Icon_ionic-md-search" data-name="Icon ionic-md-search" d="M44.622,39.379H41.767l-1.072-.9a23.7,23.7,0,0,0,5.534-15.215A23.115,23.115,0,1,0,23.2,46.539,23.921,23.921,0,0,0,38.375,40.99l1.07.9v2.863l17.849,17.9s2.756-.287,4.094-1.63a5.729,5.729,0,0,0,1.26-3.74Zm-21.419,0A16.02,16.02,0,0,1,7.14,23.269c0-8.95,8.838-17.841,17.763-17.841s16.659,8.477,16.659,17.427S32.128,39.379,23.2,39.379Z" transform="translate(-18972.455 -8282.923) rotate(17)" fill="#606060"/>
      <path id="Icon_ionic-md-search-2" data-name="Icon ionic-md-search" d="M44.622,39.379H41.767l-1.072-.9a23.7,23.7,0,0,0,5.534-15.215A23.115,23.115,0,1,0,23.2,46.539,23.921,23.921,0,0,0,38.375,40.99l1.07.9v2.863l17.849,17.9s2.756-.287,4.094-1.63a5.729,5.729,0,0,0,1.26-3.74Zm-21.419,0a16.11,16.11,0,1,1,16.064-16.11A16.02,16.02,0,0,1,23.2,39.379Z" transform="translate(-18970.348 -8283.225) rotate(17)" fill="#5ffecd"/>
      <text id="_1" data-name="1" transform="translate(-18966.768 -8262.47)" fill="#82d9ee" font-size="6" font-family="HelveticaNeue-Medium, Helvetica Neue" font-weight="500" letter-spacing="0.1em"><tspan x="0" y="0">1</tspan></text>
      <text id="_0" data-name="0" transform="translate(-18962.252 -8262.47)" fill="#8134f0" font-size="6" font-family="HelveticaNeue-Medium, Helvetica Neue" font-weight="500" letter-spacing="0.1em"><tspan x="0" y="0">0</tspan></text>
      <text id="_0-2" data-name="0" transform="translate(-18953.219 -8262.47)" fill="#1f3cf0" font-size="6" font-family="HelveticaNeue-Medium, Helvetica Neue" font-weight="500" letter-spacing="0.1em"><tspan x="0" y="0">0</tspan></text>
      <text id="_0-3" data-name="0" transform="translate(-18948.701 -8262.47)" fill="#8134f0" font-size="6" font-family="HelveticaNeue-Medium, Helvetica Neue" font-weight="500" letter-spacing="0.1em"><tspan x="0" y="0">0</tspan></text>
      <text id="_1-2" data-name="1" transform="translate(-18957.734 -8262.47)" fill="#82d9ee" font-size="6" font-family="HelveticaNeue-Medium, Helvetica Neue" font-weight="500" letter-spacing="0.1em"><tspan x="0" y="0">1</tspan></text>
      <text id="_1-3" data-name="1" transform="translate(-18962.252 -8253.437)" fill="#82d9ee" font-size="6" font-family="HelveticaNeue-Medium, Helvetica Neue" font-weight="500" letter-spacing="0.1em"><tspan x="0" y="0">1</tspan></text>
      <text id="_1-4" data-name="1" transform="translate(-18948.4 -8253.437)" fill="#82d9ee" font-size="6" font-family="HelveticaNeue-Medium, Helvetica Neue" font-weight="500" letter-spacing="0.1em"><tspan x="0" y="0">1</tspan></text>
      <text id="_0-4" data-name="0" transform="translate(-18953.219 -8253.437)" fill="#8134f0" font-size="6" font-family="HelveticaNeue-Medium, Helvetica Neue" font-weight="500" letter-spacing="0.1em"><tspan x="0" y="0">0</tspan></text>
      <text id="_0-5" data-name="0" transform="translate(-18957.734 -8253.437)" fill="#1f3cf0" font-size="6" font-family="HelveticaNeue-Medium, Helvetica Neue" font-weight="500" letter-spacing="0.1em"><tspan x="0" y="0">0</tspan></text>
      <text id="_0-6" data-name="0" transform="translate(-18967.07 -8253.437)" fill="#8134f0" font-size="6" font-family="HelveticaNeue-Medium, Helvetica Neue" font-weight="500" letter-spacing="0.1em"><tspan x="0" y="0">0</tspan></text>
      <text id="_1-5" data-name="1" transform="translate(-18966.768 -8244.103)" fill="#82d9ee" font-size="6" font-family="HelveticaNeue-Medium, Helvetica Neue" font-weight="500" letter-spacing="0.1em"><tspan x="0" y="0">1</tspan></text>
      <text id="_1-6" data-name="1" transform="translate(-18957.734 -8244.103)" fill="#82d9ee" font-size="6" font-family="HelveticaNeue-Medium, Helvetica Neue" font-weight="500" letter-spacing="0.1em"><tspan x="0" y="0">1</tspan></text>
      <text id="_0-7" data-name="0" transform="translate(-18962.252 -8244.103)" fill="#8134f0" font-size="6" font-family="HelveticaNeue-Medium, Helvetica Neue" font-weight="500" letter-spacing="0.1em"><tspan x="0" y="0">0</tspan></text>
      <text id="_0-8" data-name="0" transform="translate(-18953.219 -8244.103)" fill="#1f3cf0" font-size="6" font-family="HelveticaNeue-Medium, Helvetica Neue" font-weight="500" letter-spacing="0.1em"><tspan x="0" y="0">0</tspan></text>
      <text id="_0-9" data-name="0" transform="translate(-18948.701 -8244.103)" fill="#8134f0" font-size="6" font-family="HelveticaNeue-Medium, Helvetica Neue" font-weight="500" letter-spacing="0.1em"><tspan x="0" y="0">0</tspan></text>
      <path id="Path_132" data-name="Path 132" d="M-18900.1-7987.169h35.137" transform="translate(-71.816 -219.626)" fill="none" stroke="#82d9ee" stroke-width="2"/>
    </g>
  </g>
</svg>
