<svg xmlns="http://www.w3.org/2000/svg" width="106" height="106" viewBox="0 0 106 106">
  <g id="consulting" transform="translate(20399 7248)">
    <rect id="Rectangle_28" data-name="Rectangle 28" width="106" height="106" transform="translate(-20399 -7248)" fill="none"/>
    <g id="consulting-2" data-name="consulting" transform="translate(91.016 294.787)">
      <path id="Path_186" data-name="Path 186" d="M-20477.506-7441.355v-19.021s.068-4.72,1.793-7.971a13.681,13.681,0,0,1,5.1-5.031l16.418-9.176,13.949,17.036,1.547-7.86-3.006-7.768h8.8l-2.506,7.768,1.488,7.86,14.689-17.036,15.652,9.176a13.65,13.65,0,0,1,5.6,5.031c1.756,3.25,1.43,7.971,1.43,7.971v19.021Z" fill="none" stroke="#8134f0" stroke-width="3"/>
      <path id="Path_187" data-name="Path 187" d="M-20436-7486.146v-52.073s10.17.136,14.625,6.21,3.2,18.086,3.2,18.086,3.8-.057,3.086,5.362-3.086,4.382-3.086,4.382-2.635,8.075-7.09,12.583A21.23,21.23,0,0,1-20436-7486.146Z" fill="none" stroke="aqua" stroke-width="3"/>
      <path id="Path_188" data-name="Path 188" d="M-20441.586-7486.526v-11.954a14.052,14.052,0,0,1-8.355-13.231,14.525,14.525,0,0,1,8.355-13.335v-13.071l-5.139,2.338s1.189,5.595-2.842,8.525-8.773,1.19-8.773,1.19l-2.8,6.9s4.617,2.442,4.482,7.055-4.482,7.253-4.482,7.253l3.461,7.151s4.822-1.8,8.543,1.506a10.3,10.3,0,0,1,3.217,8.149Z" fill="#fda900" stroke="#fa0" stroke-width="3"/>
    </g>
  </g>
</svg>
