<svg xmlns="http://www.w3.org/2000/svg" width="106" height="106" viewBox="0 0 106 106">
  <g id="marketplace" transform="translate(20121 7246)">
    <rect id="Rectangle_30" data-name="Rectangle 30" width="106" height="106" transform="translate(-20121 -7246)" fill="none"/>
    <g id="ee2c0a6a64344bf4a7361a08184c5a0e" transform="translate(-20127.723 -7310.769)">
      <g id="Group_35" data-name="Group 35" transform="translate(8 72.8)">
        <path id="Path_195" data-name="Path 195" d="M71.8-436.725v2.451l.558-.509a3.631,3.631,0,0,1,1.408-.777c1.189-.34,85.109-.34,86.031.024a5.444,5.444,0,0,1,1.237.753l.534.509V-439.2H71.8Z" transform="translate(-65.322 439.2)" fill="#5ffecd"/>
        <path id="Path_196" data-name="Path 196" d="M14.73-365.368,10-358.624l7.4.072c4.076.024,7.424.024,7.473,0,.1-.1,2.766-12.858,2.766-13.223,0-.242-.849-.315-4.1-.315h-4.1Z" transform="translate(-10 379.124)" fill="#fdfe2d"/>
        <path id="Path_197" data-name="Path 197" d="M187.6-365.359l-1.456,6.745,5.435.072c3.008.024,5.483.024,5.507,0,.048-.048.291-2.645.582-5.774s.582-6.162.655-6.745l.146-1.019h-9.413Z" transform="translate(-167.677 379.115)" fill="#fff"/>
        <path id="Path_198" data-name="Path 198" d="M327.492-371.07c-.194,1.6-1.092,11.16-1.092,11.888v.679h9.365l.558-5.775c.291-3.154.607-6.211.679-6.793l.146-1.019h-9.511Z" transform="translate(-293.235 379.124)" fill="#fdfe2d"/>
        <path id="Path_199" data-name="Path 199" d="M451.368-371.789c-.024.17-.316,3.226-.7,6.793l-.655,6.5h10.482l-.679-6.5c-.364-3.566-.655-6.624-.679-6.793,0-.218-.947-.291-3.881-.291S451.368-372.007,451.368-371.789Z" transform="translate(-403.889 379.115)" fill="#fff"/>
        <path id="Path_200" data-name="Path 200" d="M571.188-370.931c.073.655.388,3.712.679,6.793l.558,5.653h9.365v-.558c0-.7-.921-10.651-1.092-12.009l-.146-1.019H571.04Z" transform="translate(-512.232 379.106)" fill="#fdfe2d"/>
        <path id="Path_201" data-name="Path 201" d="M696.4-371.061c.1.582.388,3.639.679,6.793l.534,5.775h11.014l-.558-2.62c-.315-1.432-.971-4.488-1.48-6.793l-.9-4.173H696.28Z" transform="translate(-624.345 379.115)" fill="#fff"/>
        <path id="Path_202" data-name="Path 202" d="M821.73-371.74c0,.388,2.669,13.077,2.766,13.174.048.048,3.4.048,7.473.024l7.4-.072-2.814-4.027c-1.552-2.232-3.663-5.241-4.706-6.745l-1.892-2.693h-4.125C822.507-372.08,821.73-372.007,821.73-371.74Z" transform="translate(-736.645 379.115)" fill="#fdfe2d"/>
        <path id="Path_203" data-name="Path 203" d="M18.815-207.037a7.661,7.661,0,0,0,4.051,2.451,7.269,7.269,0,0,0,6.672-2.087l1.043-1.067H18.33Z" transform="translate(-17.457 232.001)" fill="#fdfe2d"/>
        <path id="Path_204" data-name="Path 204" d="M182.9-207.507a5.3,5.3,0,0,0,1.067,1.334,5.759,5.759,0,0,0,7.473.655,6.119,6.119,0,0,0,1.48-1.48l.437-.753h-5.216C184.72-207.749,182.9-207.653,182.9-207.507Z" transform="translate(-164.777 232.01)" fill="#fff"/>
        <path id="Path_205" data-name="Path 205" d="M319.46-207.618c0,.364,1.916,2.159,2.766,2.62a6.533,6.533,0,0,0,5.143,0c1.092-.582,2.523-1.941,2.523-2.427,0-.242-1.067-.315-5.216-.315C321.813-207.74,319.46-207.692,319.46-207.618Z" transform="translate(-287.023 232.001)" fill="#fdfe2d"/>
        <path id="Path_206" data-name="Path 206" d="M456.02-207.5a5.623,5.623,0,0,0,1.165,1.432,4.768,4.768,0,0,0,4.852,1.48,5.455,5.455,0,0,0,3.324-2.451l.389-.7h-4.877C457.646-207.74,456.02-207.644,456.02-207.5Z" transform="translate(-409.269 232.001)" fill="#fff"/>
        <path id="Path_207" data-name="Path 207" d="M587.96-207.5a5.061,5.061,0,0,0,.995,1.334,5.01,5.01,0,0,0,4.95,1.6,5.4,5.4,0,0,0,3.4-2.475l.388-.7h-4.876C589.682-207.74,587.96-207.644,587.96-207.5Z" transform="translate(-527.379 232.001)" fill="#fdfe2d"/>
        <path id="Path_208" data-name="Path 208" d="M719.89-207.6a3.664,3.664,0,0,0,.509.971,5.318,5.318,0,0,0,5.459,2.062A6.148,6.148,0,0,0,729.182-207l.437-.753h-4.852A42.95,42.95,0,0,0,719.89-207.6Z" transform="translate(-645.48 232.01)" fill="#fff"/>
        <path id="Path_209" data-name="Path 209" d="M872.65-207.546c0,.485,1.528,1.965,2.693,2.6a6.9,6.9,0,0,0,8.225-1.552,7.5,7.5,0,0,0,.728-1.092c0-.072-2.62-.146-5.823-.146A41.257,41.257,0,0,0,872.65-207.546Z" transform="translate(-782.228 232.001)" fill="#fdfe2d"/>
        <path id="Path_210" data-name="Path 210" d="M211.7-187.624a8.985,8.985,0,0,1-3.785,3.178,6.847,6.847,0,0,1-3.494.558c-2.014,0-2.475-.072-3.639-.655a13.248,13.248,0,0,1-2.281-1.5l-.921-.873-1.067.947a7.081,7.081,0,0,1-5.677,2.087c-2.038,0-2.475-.072-3.688-.679a10.973,10.973,0,0,1-2.329-1.6l-.971-.947-.922.971a11.274,11.274,0,0,1-2.281,1.6,6.245,6.245,0,0,1-3.518.655,7.879,7.879,0,0,1-5.823-1.941l-1.286-1.043-.679.7a9.228,9.228,0,0,1-2.281,1.5,6.483,6.483,0,0,1-3.881.777,6.662,6.662,0,0,1-3.881-.753,10.494,10.494,0,0,1-2.427-1.6l-.873-.849-1.043.922a12.42,12.42,0,0,1-2.427,1.6c-1.213.607-1.626.679-3.785.679-2.257,0-2.547-.048-4.027-.777a10.638,10.638,0,0,1-2.766-2.038l-1.14-1.237-.947.922-.947.921v26.589h75.7v-26.47l-.995-1.262a8.538,8.538,0,0,0-1.165-1.31C212.374-188.571,212.035-188.159,211.7-187.624Zm-52.768,7.86.607.582v7.5c0,7.133-.024,7.5-.485,8.006a2.85,2.85,0,0,1-1.262.655c-.437.073-3.881.122-7.618.073-6.332-.073-6.89-.1-7.351-.534-.509-.461-.509-.655-.509-8.2,0-7.4.024-7.74.485-8.2s.8-.485,8.006-.485h7.545Zm14.436,1.213v1.82H162.931v-3.639h10.432Zm13.829,6.915v1.7H162.93v-3.4h24.261Zm-.049,6.842-.072,1.771-12.058.073-12.083.048v-3.64h24.287Z" transform="translate(-125.398 214.822)" fill="#fa0"/>
        <path id="Path_211" data-name="Path 211" d="M203.73-70.715v5.094h10.433V-75.81H203.731v5.1Z" transform="translate(-183.423 113.9)" fill="aqua"/>
        <path id="Path_212" data-name="Path 212" d="M73.328-146.833l-1.528.266v30.958h89.767l-.048-15.357-.072-15.333-1.262-.146a9.359,9.359,0,0,1-1.65-.316c-.315-.122-.364,1.407-.364,13.223v13.343l-.607.583-.583.607h-80.6l-.583-.607-.607-.583v-13.49c0-7.4-.072-13.441-.17-13.417C74.906-147.1,74.153-146.955,73.328-146.833Z" transform="translate(-65.322 177.718)" fill="#5ffecd"/>
        <path id="Path_213" data-name="Path 213" d="M71.994,186.165a17.279,17.279,0,0,0-.194,3.567v3.348h89.767v-6.792H125.733c-19.725,0-39.838-.072-44.714-.146C76.143,186.043,72.091,186.067,71.994,186.165Z" transform="translate(-65.322 -120.538)" fill="#5ffecd"/>
        <path id="Path_214" data-name="Path 214" d="M435.19,290.856v3.276h17.226V287.58H435.19Z" transform="translate(-390.622 -211.4)" fill="#5ffecd"/>
        <path id="Path_215" data-name="Path 215" d="M254.65,386.5v1.7h54.831v-3.4H254.65Z" transform="translate(-229.006 -298.429)" fill="#5ffecd"/>
      </g>
    </g>
  </g>
</svg>
