<svg width="43" height="43" viewBox="0 0 43 43" fill="none" xmlns="http://www.w3.org/2000/svg">
<path d="M21.1224 0V5.47555C12.4763 5.47555 5.46697 12.4849 5.46697 21.131H0V0H21.1224Z" fill="#00FFFF"/>
<path d="M42.2534 21.1223V42.2447H21.1224V36.7692C29.7685 36.7692 36.7779 29.7598 36.7779 21.1138H42.2534V21.1223Z" fill="#00FFFF"/>
<path d="M28.0284 21.6194C28.2995 17.8051 25.4271 14.4932 21.6129 14.2222C17.7985 13.9511 14.4867 16.8235 14.2157 20.6377C13.9445 24.452 16.8169 27.7639 20.6312 28.0349C24.4455 28.306 27.7573 25.4336 28.0284 21.6194Z" fill="#00FFFF"/>
<path d="M28.0284 21.6194C28.2995 17.8051 25.4271 14.4932 21.6129 14.2222C17.7985 13.9511 14.4867 16.8235 14.2157 20.6377C13.9445 24.452 16.8169 27.7639 20.6312 28.0349C24.4455 28.306 27.7573 25.4336 28.0284 21.6194Z" fill="#00FFFF"/>
</svg>
